<svg xmlns="http://www.w3.org/2000/svg" width="16" height="16" viewBox="0 0 16 16">
    <g fill="none" fill-rule="evenodd">
        <path fill="#FFF" d="M-1518-97H62V923h-1580z"/>
        <path fill="#A1A7AF" d="M10.536 3.464a5 5 0 0 0-7.072 0 5 5 0 0 0 0 7.071 5 5 0 0 0 7.072 0 5 5 0 0 0 0-7.07m5.2 12.27c-.391.39-1.024.39-1.415 0l-3.15-3.15c-2.742 2.05-6.63 1.857-9.12-.636a6.999 6.999 0 0 1 0-9.899 6.999 6.999 0 0 1 9.899 0c2.491 2.491 2.686 6.38.635 9.122l3.15 3.15a1 1 0 0 1 0 1.413"/>
    </g>
</svg>
